<svg width="512" height="512" viewBox="0 0 512 512" fill="none" xmlns="http://www.w3.org/2000/svg">
  <!-- Background rounded rect -->
  <rect width="512" height="512" rx="100" fill="#1B5E20"/>
  <!-- House roof -->
  <path d="M256 80L420 192V224H92V192L256 80Z" fill="#A5D6A7"/>
  <!-- House body -->
  <rect x="112" y="224" width="288" height="208" rx="8" fill="#E8F5E9"/>
  <!-- Door -->
  <rect x="216" y="288" width="80" height="144" rx="8" fill="#81C784"/>
  <!-- Window left -->
  <rect x="136" y="256" width="64" height="48" rx="6" fill="#1B5E20"/>
  <!-- Window right -->
  <rect x="312" y="256" width="64" height="48" rx="6" fill="#1B5E20"/>
  <!-- Document lines (RAB) -->
  <rect x="136" y="336" width="96" height="8" rx="4" fill="#4CAF50"/>
  <rect x="136" y="352" width="80" height="8" rx="4" fill="#4CAF50"/>
  <rect x="136" y="368" width="64" height="8" rx="4" fill="#4CAF50"/>
  <!-- Right side document lines -->
  <rect x="280" y="336" width="96" height="8" rx="4" fill="#4CAF50"/>
  <rect x="280" y="352" width="72" height="8" rx="4" fill="#4CAF50"/>
  <rect x="280" y="368" width="56" height="8" rx="4" fill="#4CAF50"/>
</svg>